<svg width="173" height="43" viewBox="0 0 173 43" fill="none" xmlns="http://www.w3.org/2000/svg">
<path d="M40.625 33V8.955H54.59C56.3633 8.955 57.845 9.29333 59.035 9.97C60.225 10.6233 61.1117 11.5333 61.695 12.7C62.3017 13.8433 62.605 15.1267 62.605 16.55C62.605 18.09 62.2433 19.4667 61.52 20.68C60.82 21.87 59.8283 22.8033 58.545 23.48L63.375 33H56.375L52.385 24.53H46.89V33H40.625ZM46.89 19.875H53.365C54.2283 19.875 54.9167 19.595 55.43 19.035C55.9667 18.4517 56.235 17.6817 56.235 16.725C56.235 16.095 56.1183 15.5583 55.885 15.115C55.6517 14.6717 55.325 14.3333 54.905 14.1C54.485 13.8433 53.9717 13.715 53.365 13.715H46.89V19.875ZM69.43 33L78.46 8.955H85.985L95.015 33H88.33L86.895 28.835H77.305L75.87 33H69.43ZM78.81 24.145H85.355L83.64 19.07C83.5467 18.8133 83.43 18.4983 83.29 18.125C83.1733 17.7283 83.045 17.32 82.905 16.9C82.7883 16.4567 82.6717 16.0133 82.555 15.57C82.4383 15.1267 82.3217 14.7417 82.205 14.415H81.96C81.8667 14.8583 81.7267 15.36 81.54 15.92C81.3767 16.48 81.2017 17.04 81.015 17.6C80.8517 18.16 80.7 18.65 80.56 19.07L78.81 24.145ZM102.788 33V8.955H116.018C117.652 8.955 119.04 9.29333 120.183 9.97C121.35 10.6233 122.237 11.545 122.843 12.735C123.473 13.9017 123.788 15.2783 123.788 16.865C123.788 18.4983 123.462 19.91 122.808 21.1C122.178 22.29 121.268 23.2233 120.078 23.9C118.912 24.5533 117.512 24.88 115.878 24.88H109.053V33H102.788ZM109.053 20.05H114.408C115.388 20.05 116.135 19.7817 116.648 19.245C117.162 18.685 117.418 17.915 117.418 16.935C117.418 16.235 117.302 15.6633 117.068 15.22C116.858 14.7767 116.532 14.4383 116.088 14.205C115.645 13.9483 115.085 13.82 114.408 13.82H109.053V20.05ZM132.127 33V8.955H138.392V33H132.127ZM148.545 33V8.955H158.59C161.204 8.955 163.409 9.38667 165.205 10.25C167.025 11.1133 168.402 12.4317 169.335 14.205C170.292 15.955 170.77 18.2067 170.77 20.96C170.77 23.69 170.292 25.9533 169.335 27.75C168.402 29.5233 167.025 30.8417 165.205 31.705C163.409 32.5683 161.204 33 158.59 33H148.545ZM154.81 28.1H158.52C159.5 28.1 160.352 27.96 161.075 27.68C161.799 27.4 162.405 26.9917 162.895 26.455C163.385 25.9183 163.747 25.2533 163.98 24.46C164.214 23.6667 164.33 22.7567 164.33 21.73V20.26C164.33 19.21 164.214 18.2883 163.98 17.495C163.747 16.7017 163.385 16.0367 162.895 15.5C162.405 14.9633 161.799 14.555 161.075 14.275C160.352 13.995 159.5 13.855 158.52 13.855H154.81V28.1Z" fill="white"/>
<rect width="11" height="25" rx="5.5" transform="matrix(-0.892596 -0.450858 0.533643 -0.84571 9.8186 26.1022)" fill="white"/>
<rect width="10.8379" height="25.5856" rx="5.41894" transform="matrix(-0.892596 -0.450858 0.533643 -0.84571 14.4912 42.986)" fill="white"/>
</svg>
